<?xml version="1.0" encoding="utf-8"?>
<!-- Generator: Adobe Illustrator 22.0.1, SVG Export Plug-In . SVG Version: 6.00 Build 0)  -->
<svg version="1.1" id="Capa_1" xmlns="http://www.w3.org/2000/svg" xmlns:xlink="http://www.w3.org/1999/xlink" x="0px" y="0px"
	 viewBox="0 0 99 99" style="enable-background:new 0 0 99 99;" xml:space="preserve">
<style type="text/css">
	.st0{fill:#3A0094;}
</style>
<g>
	<path class="st0" d="M21.1,46.8c0-1.7-1.1-2.7-3-2.7c-2.4,0-4.6,2.5-4.6,6.7v7.4c0,3.2,1.1,4,3.7,5.1v0.1H2.7v-0.1
		C4.8,62,5,61.4,5,58.2V45c0-3.3-0.3-3.9-2.5-5.2v-0.1h11.1v7.7c1.2-4.3,3.3-8.2,7.6-8.2c3.1,0,5.1,2.2,5.1,5c0,3.5-2.4,5.4-4.9,5.4
		c-0.8,0-1.4-0.2-1.7-0.5C20.6,48.7,21.1,47.8,21.1,46.8z"/>
	<path class="st0" d="M30.2,40.9h-2.8v-0.5l2.8-1.1v-1.4c0-7.3,4.8-10.8,11.6-10.8c4.4,0,7.9,1.5,7.9,5c0,2.4-2,3.9-4.3,3.9
		c-1.4,0-2.6-0.4-3.3-1.2c1.4-0.3,2.3-1.5,2.3-3.7c0-1.9-0.8-3.3-2.6-3.3c-2.2,0-3,2.1-3,4.8v7.1h6l-0.2,1.2h-5.7v17.3
		c0,3.2,1.1,4,3.7,5.1v0.1H28v-0.1c2.1-1.3,2.3-2,2.3-5.1V40.9z"/>
	<path class="st0" d="M63.1,32.8c0-3.2-0.6-4.1-2.9-5.2v-0.1h11.5v30.7c0,3,0.2,3.8,2.3,5.1v0.1H63.1v-6c-1,3.6-3.8,6.4-8.1,6.4
		c-5.6,0-10.1-4.7-10.1-12.1c0-7.7,4.8-12.6,10.8-12.6c3.9,0,6.4,2.2,7.4,5.4V32.8z M63.1,54.1v-5.5c0-4.3-2.2-7.1-4.6-7.1
		c-3.1,0-4.5,3.6-4.5,10.3c0,5.6,1.6,8.7,4.6,8.7C61,60.5,63.1,57.9,63.1,54.1z"/>
	<path class="st0" d="M81.9,43c0,2.2,1.5,2.8,5.9,4.2c6.2,2,8.8,4.1,8.8,8.8c0,4.9-4,8-9.7,8c-3.3,0-5.6-1-7.3-1
		c-1.2,0-1.8,0.5-2.4,1.1l-0.5-8.8h0.1c2.7,5.1,6,7.9,10.2,7.9c2.4,0,4.1-1.2,4.1-3.5c0-2.4-2.1-3.1-5.7-4.2
		c-5.9-1.8-8.5-4.2-8.5-8.8c0-4.5,3.8-7.4,8.7-7.4c3,0,4.8,1.2,6.6,1.2c1.1,0,1.8-0.5,2.7-1.2v7.8h-0.1c-2.1-4.1-5.8-6.9-9.2-6.9
		C83.2,40,81.9,41.2,81.9,43z"/>
</g>
</svg>
